<svg xmlns="http://www.w3.org/2000/svg" xmlns:xlink="http://www.w3.org/1999/xlink" width="1024" zoomAndPan="magnify" viewBox="0 0 768 767.999994" height="1024" preserveAspectRatio="xMidYMid meet" version="1.0"><path fill="#f2e6dc" d="M 768 384 C 768 596.078125 596.074219 768 384 768 C 171.921875 768 0 596.078125 0 384 C 0 171.925781 171.921875 0 384 0 C 596.074219 0 768 171.925781 768 384 " fill-opacity="1" fill-rule="nonzero"/><path fill="#ffffff" d="M 437.007812 614.113281 C 418.945312 660.960938 366.882812 686.058594 318.980469 671.011719 C 266.085938 654.40625 238.277344 596.71875 258.226562 544.996094 C 276.292969 498.152344 328.355469 473.050781 376.257812 488.09375 C 429.148438 504.703125 456.960938 562.386719 437.007812 614.113281 Z M 497.511719 605.445312 L 483.5625 600.566406 C 484.6875 593.328125 485.214844 586.09375 485.183594 578.917969 L 499.695312 576.167969 L 490.375 527.027344 L 475.832031 529.785156 C 473.210938 523.03125 470.058594 516.5 466.410156 510.242188 L 477.625 500.582031 L 444.988281 462.683594 L 433.796875 472.324219 C 428.203125 467.828125 422.210938 463.734375 415.847656 460.109375 L 420.722656 446.15625 L 373.507812 429.660156 L 368.632812 443.609375 C 361.398438 442.480469 354.15625 441.953125 346.980469 441.988281 L 344.230469 427.480469 L 295.09375 436.796875 L 297.847656 451.339844 C 291.097656 453.964844 284.5625 457.113281 278.304688 460.761719 L 268.644531 449.542969 L 230.75 482.1875 L 240.386719 493.375 C 235.890625 498.96875 231.800781 504.957031 228.171875 511.324219 L 214.222656 506.449219 L 197.722656 553.664062 L 211.675781 558.539062 C 210.546875 565.777344 210.019531 573.011719 210.050781 580.1875 L 195.539062 582.941406 L 204.859375 632.082031 L 219.402344 629.324219 C 222.027344 636.070312 225.179688 642.605469 228.824219 648.863281 L 217.609375 658.523438 L 250.25 696.421875 L 261.4375 686.785156 C 267.035156 691.28125 273.023438 695.371094 279.386719 698.996094 L 274.511719 712.949219 L 321.730469 729.449219 L 326.605469 715.496094 C 333.839844 716.621094 341.074219 717.152344 348.253906 717.121094 L 351.003906 731.625 L 400.144531 722.308594 L 397.386719 707.769531 C 404.136719 705.144531 410.671875 701.992188 416.929688 698.347656 L 426.589844 709.5625 L 464.484375 676.921875 L 454.847656 665.730469 C 459.34375 660.136719 463.4375 654.148438 467.0625 647.78125 L 481.015625 652.65625 L 497.511719 605.445312 " fill-opacity="1" fill-rule="nonzero"/><path fill="#f2e6dc" d="M 347.640625 689.394531 C 335.539062 689.394531 323.304688 687.398438 311.386719 683.230469 C 283.695312 673.558594 261.429688 653.671875 248.6875 627.246094 C 235.949219 600.824219 234.261719 571.019531 243.9375 543.324219 C 252.667969 518.347656 270.109375 497.363281 293.050781 484.242188 C 315.761719 471.25 342.347656 466.765625 367.917969 471.601562 C 368.144531 471.648438 368.296875 471.867188 368.253906 472.09375 C 368.207031 472.320312 367.988281 472.46875 367.761719 472.429688 C 315.277344 462.492188 262.382812 493.089844 244.730469 543.601562 C 224.90625 600.332031 254.933594 662.617188 311.664062 682.441406 C 358.542969 698.820312 410.550781 681.484375 438.152344 640.28125 C 438.28125 640.089844 438.539062 640.039062 438.734375 640.167969 C 438.925781 640.292969 438.976562 640.554688 438.847656 640.746094 C 418.050781 671.796875 383.496094 689.394531 347.640625 689.394531 " fill-opacity="1" fill-rule="nonzero"/><path fill="#e6d0be" d="M 722.089844 345.6875 C 721.320312 369.855469 701.644531 389.539062 677.472656 390.3125 C 650.789062 391.164062 628.980469 369.355469 629.832031 342.667969 C 630.605469 318.507812 650.289062 298.824219 674.449219 298.050781 C 701.136719 297.195312 722.949219 319.007812 722.089844 345.6875 Z M 754.867188 331.03125 L 747.09375 331.03125 C 746.394531 327.242188 745.40625 323.554688 744.144531 320 L 750.867188 316.117188 L 737.71875 293.339844 L 730.980469 297.230469 C 728.5 294.335938 725.808594 291.644531 722.910156 289.164062 L 726.804688 282.425781 L 704.027344 269.277344 L 700.144531 276.003906 C 696.582031 274.738281 692.902344 273.746094 689.113281 273.050781 L 689.113281 265.28125 L 662.816406 265.28125 L 662.816406 273.050781 C 659.023438 273.746094 655.335938 274.738281 651.785156 276.003906 L 647.90625 269.277344 L 625.121094 282.425781 L 629.019531 289.164062 C 626.121094 291.644531 623.425781 294.335938 620.953125 297.230469 L 614.207031 293.339844 L 601.0625 316.117188 L 607.785156 320 C 606.519531 323.554688 605.527344 327.242188 604.835938 331.03125 L 597.0625 331.03125 L 597.0625 357.328125 L 604.835938 357.328125 C 605.527344 361.121094 606.519531 364.804688 607.785156 368.355469 L 601.0625 372.246094 L 614.207031 395.019531 L 620.953125 391.125 C 623.425781 394.019531 626.121094 396.71875 629.019531 399.195312 L 625.121094 405.9375 L 647.90625 419.082031 L 651.785156 412.359375 C 655.335938 413.621094 659.023438 414.613281 662.816406 415.3125 L 662.816406 423.078125 L 689.113281 423.078125 L 689.113281 415.3125 C 692.902344 414.613281 696.582031 413.621094 700.144531 412.359375 L 704.027344 419.082031 L 726.804688 405.9375 L 722.910156 399.195312 C 725.808594 396.71875 728.5 394.019531 730.980469 391.125 L 737.71875 395.019531 L 750.867188 372.246094 L 744.144531 368.355469 C 745.40625 364.804688 746.394531 361.121094 747.09375 357.328125 L 754.867188 357.328125 L 754.867188 331.03125 " fill-opacity="1" fill-rule="nonzero"/><path fill="#f2e6dc" d="M 675.960938 402.132812 C 644.007812 402.132812 618.015625 376.132812 618.015625 344.183594 C 618.015625 330.21875 623.046875 316.726562 632.191406 306.199219 C 641.246094 295.78125 653.710938 288.910156 667.28125 286.871094 C 667.519531 286.835938 667.734375 287 667.765625 287.226562 C 667.796875 287.457031 667.640625 287.671875 667.410156 287.703125 C 639.730469 291.863281 618.855469 316.144531 618.855469 344.183594 C 618.855469 375.671875 644.46875 401.292969 675.960938 401.292969 C 701.980469 401.292969 724.714844 383.726562 731.246094 358.570312 C 731.304688 358.347656 731.535156 358.210938 731.761719 358.273438 C 731.980469 358.328125 732.121094 358.558594 732.0625 358.78125 C 725.433594 384.304688 702.367188 402.132812 675.960938 402.132812 " fill-opacity="1" fill-rule="nonzero"/><path fill="#ffffff" d="M 644.804688 600.257812 L 349.367188 600.257812 L 349.367188 42.898438 L 644.804688 42.898438 L 644.804688 600.257812 " fill-opacity="1" fill-rule="nonzero"/><path fill="#363e44" d="M 358.246094 5.105469 C 341.175781 5.105469 327.292969 18.992188 327.292969 36.058594 L 327.292969 601.800781 C 327.292969 618.867188 341.175781 632.753906 358.246094 632.753906 L 633.890625 632.753906 C 650.949219 632.753906 664.835938 618.867188 664.835938 601.800781 L 664.835938 36.058594 C 664.835938 18.992188 650.949219 5.105469 633.890625 5.105469 Z M 633.890625 633.59375 L 358.246094 633.59375 C 340.714844 633.59375 326.453125 619.332031 326.453125 601.800781 L 326.453125 36.058594 C 326.453125 18.527344 340.714844 4.269531 358.246094 4.269531 L 633.890625 4.269531 C 651.417969 4.269531 665.675781 18.527344 665.675781 36.058594 L 665.675781 601.800781 C 665.675781 619.332031 651.417969 633.59375 633.890625 633.59375 " fill-opacity="1" fill-rule="nonzero"/><path fill="#363e44" d="M 537.800781 25.660156 L 456.378906 25.660156 C 456.152344 25.660156 455.960938 25.46875 455.960938 25.234375 C 455.960938 25.007812 456.152344 24.816406 456.378906 24.816406 L 537.800781 24.816406 C 538.027344 24.816406 538.214844 25.007812 538.214844 25.234375 C 538.214844 25.46875 538.027344 25.660156 537.800781 25.660156 " fill-opacity="1" fill-rule="nonzero"/><path fill="#d3bba3" d="M 496.808594 98.664062 C 455.6875 98.664062 422.234375 132.117188 422.234375 173.238281 C 422.234375 214.359375 455.6875 247.816406 496.808594 247.816406 C 537.933594 247.816406 571.382812 214.359375 571.382812 173.238281 C 571.382812 132.117188 537.933594 98.664062 496.808594 98.664062 Z M 496.808594 248.652344 C 455.222656 248.652344 421.390625 214.820312 421.390625 173.238281 C 421.390625 131.65625 455.222656 97.820312 496.808594 97.820312 C 538.394531 97.820312 572.222656 131.65625 572.222656 173.238281 C 572.222656 214.820312 538.394531 248.652344 496.808594 248.652344 " fill-opacity="1" fill-rule="nonzero"/><path fill="#d3bba3" d="M 496.808594 173.703125 C 472.957031 173.703125 457.476562 182.835938 457.476562 197.472656 C 464.914062 211.601562 479.734375 221.242188 496.808594 221.242188 C 513.886719 221.242188 528.710938 211.601562 536.144531 197.472656 C 536.144531 183.605469 519.125 173.703125 496.808594 173.703125 " fill-opacity="1" fill-rule="nonzero"/><path fill="#d3bba3" d="M 517.09375 142.035156 C 517.09375 153.238281 508.011719 162.324219 496.808594 162.324219 C 485.597656 162.324219 476.519531 153.238281 476.519531 142.035156 C 476.519531 130.835938 485.597656 121.75 496.808594 121.75 C 508.011719 121.75 517.09375 130.835938 517.09375 142.035156 " fill-opacity="1" fill-rule="nonzero"/><path fill="#d87355" d="M 581.875 379.253906 L 410.417969 379.777344 C 396.621094 379.816406 385.410156 368.671875 385.367188 354.882812 C 385.320312 341.09375 396.46875 329.875 410.257812 329.835938 L 581.722656 329.304688 C 595.511719 329.265625 606.726562 340.410156 606.773438 354.203125 C 606.8125 367.992188 595.664062 379.207031 581.875 379.253906 " fill-opacity="1" fill-rule="nonzero"/><path fill="#d87355" d="M 581.875 521.15625 L 410.417969 521.683594 C 396.621094 521.726562 385.410156 510.582031 385.367188 496.785156 C 385.320312 482.996094 396.46875 471.78125 410.257812 471.742188 L 581.722656 471.210938 C 595.511719 471.167969 606.726562 482.316406 606.773438 496.105469 C 606.8125 509.898438 595.664062 521.113281 581.875 521.15625 " fill-opacity="1" fill-rule="nonzero"/><path fill="#363e44" d="M 473.03125 314.164062 L 468.632812 314.175781 L 460.027344 300.164062 L 460.074219 314.199219 L 455.675781 314.214844 L 455.609375 292.878906 L 460.007812 292.859375 L 468.621094 306.90625 L 468.582031 292.835938 L 472.960938 292.820312 L 473.03125 314.164062 " fill-opacity="1" fill-rule="nonzero"/><path fill="#363e44" d="M 482.632812 306.171875 L 487.96875 306.15625 L 485.261719 298.175781 Z M 489.164062 309.714844 L 481.457031 309.738281 L 480.003906 314.140625 L 475.328125 314.152344 L 483.207031 292.789062 L 487.28125 292.777344 L 495.335938 314.09375 L 490.660156 314.109375 L 489.164062 309.714844 " fill-opacity="1" fill-rule="nonzero"/><path fill="#363e44" d="M 503.007812 292.730469 L 508.539062 308.191406 L 513.9375 292.695312 L 519.714844 292.679688 L 519.78125 314.015625 L 515.371094 314.03125 L 515.351562 308.199219 L 515.761719 298.125 L 510.050781 314.050781 L 507.03125 314.058594 L 501.234375 298.183594 L 501.703125 308.242188 L 501.726562 314.074219 L 497.328125 314.085938 L 497.261719 292.746094 L 503.007812 292.730469 " fill-opacity="1" fill-rule="nonzero"/><path fill="#363e44" d="M 536.429688 304.71875 L 527.988281 304.746094 L 528.007812 310.460938 L 537.914062 310.429688 L 537.921875 313.960938 L 523.621094 314.007812 L 523.554688 292.667969 L 537.832031 292.621094 L 537.839844 296.183594 L 527.964844 296.214844 L 527.976562 301.300781 L 536.421875 301.273438 L 536.429688 304.71875 " fill-opacity="1" fill-rule="nonzero"/><path fill="#363e44" d="M 422.710938 446.402344 L 426.640625 446.394531 C 427.800781 446.386719 428.6875 446.113281 429.296875 445.5625 C 429.902344 445.011719 430.207031 444.230469 430.207031 443.214844 C 430.203125 442.171875 429.890625 441.324219 429.273438 440.679688 C 428.65625 440.039062 427.804688 439.707031 426.71875 439.695312 L 422.691406 439.703125 Z M 422.71875 449.964844 L 422.746094 457.484375 L 418.347656 457.496094 L 418.285156 436.15625 L 426.605469 436.132812 C 428.207031 436.128906 429.617188 436.417969 430.835938 436.996094 C 432.058594 437.582031 432.992188 438.410156 433.652344 439.488281 C 434.308594 440.566406 434.644531 441.792969 434.644531 443.167969 C 434.652344 445.265625 433.941406 446.914062 432.515625 448.125 C 431.085938 449.335938 429.105469 449.941406 426.574219 449.949219 L 422.71875 449.964844 " fill-opacity="1" fill-rule="nonzero"/><path fill="#363e44" d="M 440.601562 449.46875 L 445.933594 449.453125 L 443.226562 441.472656 Z M 447.132812 453.011719 L 439.421875 453.035156 L 437.96875 457.433594 L 433.296875 457.449219 L 441.175781 436.085938 L 445.246094 436.070312 L 453.300781 457.386719 L 448.625 457.40625 L 447.132812 453.011719 " fill-opacity="1" fill-rule="nonzero"/><path fill="#363e44" d="M 466.34375 451.753906 C 466.339844 450.921875 466.046875 450.285156 465.460938 449.835938 C 464.871094 449.398438 463.8125 448.929688 462.289062 448.445312 C 460.761719 447.953125 459.554688 447.46875 458.664062 446.996094 C 456.238281 445.695312 455.019531 443.933594 455.011719 441.71875 C 455.007812 440.5625 455.332031 439.535156 455.980469 438.628906 C 456.625 437.722656 457.554688 437.011719 458.769531 436.5 C 459.984375 435.988281 461.347656 435.734375 462.867188 435.730469 C 464.386719 435.71875 465.746094 435.992188 466.9375 436.542969 C 468.136719 437.09375 469.0625 437.867188 469.726562 438.871094 C 470.390625 439.875 470.722656 441.015625 470.726562 442.296875 L 466.328125 442.3125 C 466.328125 441.335938 466.015625 440.574219 465.398438 440.035156 C 464.78125 439.492188 463.914062 439.226562 462.800781 439.230469 C 461.726562 439.234375 460.890625 439.464844 460.296875 439.921875 C 459.703125 440.375 459.40625 440.976562 459.410156 441.71875 C 459.410156 442.410156 459.765625 442.988281 460.464844 443.460938 C 461.160156 443.925781 462.195312 444.359375 463.550781 444.769531 C 466.054688 445.511719 467.878906 446.4375 469.027344 447.550781 C 470.175781 448.660156 470.75 450.046875 470.753906 451.703125 C 470.757812 453.550781 470.066406 455.003906 468.671875 456.058594 C 467.28125 457.113281 465.398438 457.644531 463.035156 457.652344 C 461.390625 457.65625 459.898438 457.363281 458.546875 456.761719 C 457.199219 456.167969 456.167969 455.347656 455.453125 454.304688 C 454.746094 453.261719 454.382812 452.050781 454.378906 450.671875 L 458.789062 450.660156 C 458.796875 453.015625 460.207031 454.183594 463.023438 454.175781 C 464.070312 454.171875 464.882812 453.960938 465.46875 453.535156 C 466.054688 453.109375 466.34375 452.511719 466.34375 451.753906 " fill-opacity="1" fill-rule="nonzero"/><path fill="#363e44" d="M 484.796875 451.695312 C 484.792969 450.863281 484.5 450.226562 483.910156 449.785156 C 483.324219 449.339844 482.265625 448.871094 480.738281 448.386719 C 479.214844 447.898438 478.007812 447.417969 477.117188 446.9375 C 474.6875 445.636719 473.46875 443.878906 473.464844 441.660156 C 473.460938 440.503906 473.785156 439.476562 474.429688 438.570312 C 475.078125 437.667969 476.007812 436.960938 477.222656 436.445312 C 478.4375 435.933594 479.804688 435.671875 481.316406 435.671875 C 482.839844 435.664062 484.203125 435.9375 485.394531 436.484375 C 486.589844 437.035156 487.515625 437.808594 488.179688 438.8125 C 488.84375 439.820312 489.171875 440.960938 489.179688 442.242188 L 484.78125 442.253906 C 484.777344 441.277344 484.46875 440.519531 483.851562 439.980469 C 483.230469 439.4375 482.367188 439.171875 481.253906 439.171875 C 480.179688 439.179688 479.347656 439.40625 478.75 439.863281 C 478.152344 440.320312 477.859375 440.917969 477.859375 441.660156 C 477.863281 442.355469 478.214844 442.933594 478.914062 443.398438 C 479.613281 443.867188 480.644531 444.304688 482 444.710938 C 484.507812 445.457031 486.332031 446.382812 487.480469 447.492188 C 488.625 448.605469 489.203125 449.988281 489.207031 451.652344 C 489.210938 453.5 488.519531 454.949219 487.125 456.003906 C 485.726562 457.054688 483.851562 457.589844 481.484375 457.59375 C 479.84375 457.601562 478.351562 457.304688 477 456.707031 C 475.648438 456.113281 474.617188 455.289062 473.90625 454.25 C 473.195312 453.203125 472.835938 451.996094 472.832031 450.613281 L 477.242188 450.601562 C 477.25 452.957031 478.660156 454.132812 481.476562 454.121094 C 482.523438 454.117188 483.335938 453.90625 483.917969 453.476562 C 484.507812 453.050781 484.796875 452.457031 484.796875 451.695312 " fill-opacity="1" fill-rule="nonzero"/><path fill="#363e44" d="M 508.800781 451.0625 L 511.625 435.871094 L 516.007812 435.855469 L 511.339844 457.210938 L 506.914062 457.226562 L 503.398438 442.960938 L 499.96875 457.246094 L 495.539062 457.257812 L 490.738281 435.933594 L 495.125 435.921875 L 498.058594 451.066406 L 501.53125 435.902344 L 505.253906 435.886719 L 508.800781 451.0625 " fill-opacity="1" fill-rule="nonzero"/><path fill="#363e44" d="M 531.484375 445.992188 C 531.480469 443.757812 531.074219 442.058594 530.269531 440.898438 C 529.46875 439.734375 528.320312 439.164062 526.835938 439.164062 C 525.355469 439.171875 524.222656 439.746094 523.421875 440.898438 C 522.625 442.050781 522.226562 443.730469 522.222656 445.953125 L 522.226562 446.988281 C 522.234375 449.171875 522.640625 450.855469 523.445312 452.058594 C 524.25 453.257812 525.40625 453.855469 526.910156 453.851562 C 528.382812 453.847656 529.515625 453.261719 530.304688 452.105469 C 531.089844 450.941406 531.484375 449.253906 531.488281 447.035156 Z M 535.945312 446.945312 C 535.949219 449.050781 535.585938 450.890625 534.847656 452.480469 C 534.113281 454.0625 533.050781 455.285156 531.671875 456.152344 C 530.292969 457.015625 528.707031 457.449219 526.917969 457.457031 C 525.152344 457.460938 523.574219 457.039062 522.183594 456.195312 C 520.792969 455.347656 519.714844 454.140625 518.945312 452.5625 C 518.183594 450.988281 517.785156 449.175781 517.769531 447.121094 L 517.769531 446.066406 C 517.761719 443.96875 518.136719 442.117188 518.886719 440.519531 C 519.636719 438.914062 520.707031 437.683594 522.085938 436.828125 C 523.464844 435.96875 525.042969 435.535156 526.824219 435.53125 C 528.601562 435.523438 530.183594 435.949219 531.570312 436.796875 C 532.953125 437.644531 534.027344 438.871094 534.789062 440.46875 C 535.550781 442.0625 535.9375 443.902344 535.941406 445.992188 L 535.945312 446.945312 " fill-opacity="1" fill-rule="nonzero"/><path fill="#363e44" d="M 543.539062 445.738281 L 547.082031 445.726562 C 548.1875 445.726562 549.035156 445.4375 549.644531 444.875 C 550.246094 444.308594 550.550781 443.539062 550.542969 442.546875 C 550.539062 441.542969 550.253906 440.75 549.683594 440.175781 C 549.109375 439.601562 548.230469 439.316406 547.050781 439.320312 L 543.515625 439.332031 Z M 547.050781 449.285156 L 543.546875 449.300781 L 543.570312 457.109375 L 539.175781 457.121094 L 539.109375 435.785156 L 547.039062 435.761719 C 549.558594 435.753906 551.507812 436.304688 552.875 437.429688 C 554.25 438.546875 554.9375 440.128906 554.945312 442.183594 C 554.949219 443.640625 554.636719 444.851562 554.011719 445.828125 C 553.382812 446.800781 552.429688 447.578125 551.152344 448.164062 L 555.796875 456.867188 L 555.796875 457.070312 L 551.074219 457.085938 L 547.050781 449.285156 " fill-opacity="1" fill-rule="nonzero"/><path fill="#363e44" d="M 562.671875 439.277344 L 562.710938 453.519531 L 564.835938 453.515625 C 566.558594 453.503906 567.871094 452.945312 568.777344 451.816406 C 569.675781 450.695312 570.140625 449.078125 570.152344 446.988281 L 570.148438 445.863281 C 570.140625 443.691406 569.6875 442.050781 568.78125 440.933594 C 567.882812 439.816406 566.5625 439.261719 564.835938 439.265625 Z M 558.328125 457.0625 L 558.261719 435.726562 L 564.828125 435.707031 C 566.703125 435.699219 568.382812 436.121094 569.863281 436.960938 C 571.347656 437.796875 572.507812 439 573.339844 440.558594 C 574.179688 442.109375 574.597656 443.878906 574.605469 445.867188 L 574.605469 446.84375 C 574.613281 448.828125 574.210938 450.597656 573.402344 452.140625 C 572.585938 453.683594 571.441406 454.886719 569.960938 455.738281 C 568.480469 456.59375 566.804688 457.03125 564.933594 457.046875 L 558.328125 457.0625 " fill-opacity="1" fill-rule="nonzero"/><path fill="#ffffff" d="M 435.027344 355.199219 C 435.027344 351.21875 431.804688 347.992188 427.824219 347.992188 C 423.84375 347.992188 420.617188 351.21875 420.617188 355.199219 C 420.617188 359.175781 423.84375 362.402344 427.824219 362.402344 C 431.804688 362.402344 435.027344 359.175781 435.027344 355.199219 " fill-opacity="1" fill-rule="nonzero"/><path fill="#ffffff" d="M 462.433594 355.199219 C 462.433594 351.21875 459.210938 347.992188 455.226562 347.992188 C 451.246094 347.992188 448.019531 351.21875 448.019531 355.199219 C 448.019531 359.175781 451.246094 362.402344 455.226562 362.402344 C 459.210938 362.402344 462.433594 359.175781 462.433594 355.199219 " fill-opacity="1" fill-rule="nonzero"/><path fill="#ffffff" d="M 488.960938 355.199219 C 488.960938 351.21875 485.734375 347.992188 481.753906 347.992188 C 477.777344 347.992188 474.550781 351.21875 474.550781 355.199219 C 474.550781 359.175781 477.777344 362.402344 481.753906 362.402344 C 485.734375 362.402344 488.960938 359.175781 488.960938 355.199219 " fill-opacity="1" fill-rule="nonzero"/><path fill="#ffffff" d="M 516.363281 355.199219 C 516.363281 351.21875 513.136719 347.992188 509.160156 347.992188 C 505.179688 347.992188 501.953125 351.21875 501.953125 355.199219 C 501.953125 359.175781 505.179688 362.402344 509.160156 362.402344 C 513.136719 362.402344 516.363281 359.175781 516.363281 355.199219 " fill-opacity="1" fill-rule="nonzero"/><path fill="#ffffff" d="M 543.941406 355.199219 C 543.941406 351.21875 540.714844 347.992188 536.734375 347.992188 C 532.753906 347.992188 529.527344 351.21875 529.527344 355.199219 C 529.527344 359.175781 532.753906 362.40625 536.734375 362.40625 C 540.714844 362.40625 543.941406 359.175781 543.941406 355.199219 " fill-opacity="1" fill-rule="nonzero"/><path fill="#ffffff" d="M 571.34375 355.199219 C 571.34375 351.21875 568.117188 347.992188 564.136719 347.992188 C 560.152344 347.992188 556.929688 351.21875 556.929688 355.199219 C 556.929688 359.175781 560.152344 362.40625 564.136719 362.40625 C 568.117188 362.40625 571.34375 359.175781 571.34375 355.199219 " fill-opacity="1" fill-rule="nonzero"/><path fill="#ffffff" d="M 435.027344 496.945312 C 435.027344 492.96875 431.804688 489.742188 427.824219 489.742188 C 423.84375 489.742188 420.617188 492.96875 420.617188 496.945312 C 420.617188 500.925781 423.84375 504.152344 427.824219 504.152344 C 431.804688 504.152344 435.027344 500.925781 435.027344 496.945312 " fill-opacity="1" fill-rule="nonzero"/><path fill="#ffffff" d="M 462.433594 496.945312 C 462.433594 492.96875 459.210938 489.742188 455.226562 489.742188 C 451.246094 489.742188 448.019531 492.96875 448.019531 496.945312 C 448.019531 500.925781 451.246094 504.152344 455.226562 504.152344 C 459.210938 504.152344 462.433594 500.925781 462.433594 496.945312 " fill-opacity="1" fill-rule="nonzero"/><path fill="#ffffff" d="M 488.960938 496.945312 C 488.960938 492.96875 485.734375 489.742188 481.753906 489.742188 C 477.777344 489.742188 474.550781 492.96875 474.550781 496.945312 C 474.550781 500.925781 477.777344 504.152344 481.753906 504.152344 C 485.734375 504.152344 488.960938 500.925781 488.960938 496.945312 " fill-opacity="1" fill-rule="nonzero"/><path fill="#ffffff" d="M 516.363281 496.945312 C 516.363281 492.96875 513.136719 489.742188 509.160156 489.742188 C 505.179688 489.742188 501.953125 492.96875 501.953125 496.945312 C 501.953125 500.925781 505.179688 504.152344 509.160156 504.152344 C 513.136719 504.152344 516.363281 500.925781 516.363281 496.945312 " fill-opacity="1" fill-rule="nonzero"/><path fill="#ffffff" d="M 543.941406 496.949219 C 543.941406 492.96875 540.714844 489.742188 536.734375 489.742188 C 532.753906 489.742188 529.527344 492.96875 529.527344 496.949219 C 529.527344 500.925781 532.753906 504.152344 536.734375 504.152344 C 540.714844 504.152344 543.941406 500.925781 543.941406 496.949219 " fill-opacity="1" fill-rule="nonzero"/><path fill="#ffffff" d="M 571.34375 496.949219 C 571.34375 492.96875 568.117188 489.742188 564.136719 489.742188 C 560.152344 489.742188 556.929688 492.96875 556.929688 496.949219 C 556.929688 500.925781 560.152344 504.152344 564.136719 504.152344 C 568.117188 504.152344 571.34375 500.925781 571.34375 496.949219 " fill-opacity="1" fill-rule="nonzero"/><path fill="#776e42" d="M 604.441406 728.007812 L 604.371094 728.003906 C 604.148438 727.96875 603.984375 727.757812 604.027344 727.527344 C 608.363281 699.304688 619.105469 672.046875 635.101562 648.699219 C 648.34375 629.363281 664.921875 612.785156 684.363281 599.429688 C 684.558594 599.300781 684.820312 599.347656 684.949219 599.539062 C 685.082031 599.730469 685.03125 599.992188 684.847656 600.121094 C 665.480469 613.421875 648.976562 629.921875 635.792969 649.171875 C 619.871094 672.414062 609.171875 699.554688 604.851562 727.65625 C 604.820312 727.863281 604.640625 728.007812 604.441406 728.007812 " fill-opacity="1" fill-rule="nonzero"/><path fill="#776e42" d="M 593.507812 730.097656 C 593.332031 730.097656 593.164062 729.988281 593.105469 729.8125 C 585.84375 708.640625 582.582031 685.480469 583.671875 662.828125 C 584.578125 644.070312 588.339844 625.828125 594.863281 608.601562 C 594.941406 608.386719 595.183594 608.277344 595.40625 608.359375 C 595.621094 608.4375 595.730469 608.683594 595.644531 608.902344 C 589.160156 626.042969 585.414062 644.199219 584.515625 662.871094 C 583.425781 685.417969 586.671875 708.46875 593.902344 729.542969 C 593.980469 729.761719 593.859375 730 593.640625 730.074219 C 593.59375 730.089844 593.550781 730.097656 593.507812 730.097656 " fill-opacity="1" fill-rule="nonzero"/><path fill="#efbc73" d="M 639.777344 764.53125 L 551.289062 764.53125 L 551.289062 699.609375 L 639.777344 699.609375 L 639.777344 764.53125 " fill-opacity="1" fill-rule="nonzero"/><path fill="#8b865c" d="M 724.65625 630.105469 L 670.4375 620.265625 L 742.542969 598.570312 C 755.941406 568.460938 760.390625 540.015625 760.390625 540.015625 C 760.390625 540.015625 747.511719 539.28125 729.03125 541.148438 L 696.152344 596.421875 L 699.164062 546.046875 C 683.875 549.601562 667.59375 555.152344 652.6875 563.800781 C 650.59375 565.019531 648.582031 566.28125 646.660156 567.582031 L 639.847656 643.769531 L 620.027344 595.5 C 607.265625 617.492188 608.203125 641.457031 619.574219 655.339844 C 637.007812 676.632812 681.835938 677.925781 715.839844 640.917969 C 718.980469 637.5 721.910156 633.875 724.65625 630.105469 " fill-opacity="1" fill-rule="nonzero"/><path fill="#776e42" d="M 729.035156 541.144531 C 720.113281 542.042969 709.886719 543.554688 699.167969 546.042969 L 696.160156 596.417969 L 729.035156 541.144531 " fill-opacity="1" fill-rule="nonzero"/><path fill="#776e42" d="M 646.660156 567.582031 C 634.667969 575.691406 625.898438 585.386719 620.027344 595.5 L 639.855469 643.769531 L 646.660156 567.582031 " fill-opacity="1" fill-rule="nonzero"/><path fill="#776e42" d="M 724.660156 630.105469 C 731.886719 620.183594 737.785156 609.273438 742.546875 598.570312 L 670.4375 620.265625 L 724.660156 630.105469 " fill-opacity="1" fill-rule="nonzero"/><path fill="#776e42" d="M 620.949219 674.46875 C 620.886719 674.46875 620.828125 674.460938 620.765625 674.429688 C 620.558594 674.328125 620.46875 674.082031 620.570312 673.871094 C 624.753906 665.144531 629.636719 656.671875 635.101562 648.699219 C 648.34375 629.363281 664.921875 612.785156 684.363281 599.429688 C 684.558594 599.300781 684.820312 599.347656 684.949219 599.539062 C 685.082031 599.730469 685.03125 599.992188 684.847656 600.121094 C 665.480469 613.421875 648.976562 629.921875 635.792969 649.171875 C 630.355469 657.113281 625.488281 665.542969 621.328125 674.234375 C 621.253906 674.382812 621.105469 674.46875 620.949219 674.46875 " fill-opacity="1" fill-rule="nonzero"/><path fill="#776e42" d="M 628.65625 612.980469 L 594.222656 628.675781 L 628.003906 583.929688 C 625.273438 557.707031 618 536.34375 618 536.34375 C 618 536.34375 610.371094 541.171875 600.4375 550.109375 L 600.707031 601.664062 L 585.039062 565.835938 C 577.511719 574.609375 570.113281 585.164062 564.566406 597.273438 C 563.789062 598.976562 563.070312 600.671875 562.417969 602.367188 L 584.832031 657.480469 L 556.816406 632.554688 C 557.105469 652.9375 565.917969 668.996094 577.21875 673.816406 C 594.558594 681.210938 620.65625 663.539062 627.34375 624.050781 C 627.957031 620.40625 628.386719 616.703125 628.65625 612.980469 " fill-opacity="1" fill-rule="nonzero"/><path fill="#8b865c" d="M 600.4375 550.113281 C 595.636719 554.421875 590.308594 559.691406 585.03125 565.839844 L 600.703125 601.664062 L 600.4375 550.113281 " fill-opacity="1" fill-rule="nonzero"/><path fill="#8b865c" d="M 562.410156 602.367188 C 558.351562 612.898438 556.679688 623.183594 556.816406 632.554688 L 584.828125 657.480469 L 562.410156 602.367188 " fill-opacity="1" fill-rule="nonzero"/><path fill="#8b865c" d="M 628.652344 612.980469 C 629.359375 603.179688 628.960938 593.25 628 583.933594 L 594.214844 628.679688 L 628.652344 612.980469 " fill-opacity="1" fill-rule="nonzero"/><path fill="#776e42" d="M 584.289062 684.132812 C 584.070312 684.132812 583.886719 683.960938 583.875 683.742188 C 583.402344 676.808594 583.339844 669.777344 583.671875 662.828125 C 584.578125 644.070312 588.339844 625.828125 594.863281 608.601562 C 594.941406 608.386719 595.183594 608.277344 595.40625 608.359375 C 595.621094 608.4375 595.730469 608.683594 595.644531 608.902344 C 589.160156 626.042969 585.414062 644.199219 584.515625 662.871094 C 584.175781 669.785156 584.246094 676.785156 584.707031 683.683594 C 584.726562 683.914062 584.550781 684.113281 584.320312 684.132812 L 584.289062 684.132812 " fill-opacity="1" fill-rule="nonzero"/><path fill="#bc8271" d="M 254.316406 685.214844 L 251.574219 737.265625 L 206.28125 735.210938 L 206.964844 687.265625 L 254.316406 685.214844 " fill-opacity="1" fill-rule="nonzero"/><path fill="#bc8271" d="M 137.207031 683.113281 L 134.234375 735.160156 L 89.636719 733.109375 L 90.378906 685.167969 L 137.207031 683.113281 " fill-opacity="1" fill-rule="nonzero"/><path fill="#363e44" d="M 121.113281 348.53125 C 105.972656 364.214844 86.027344 389.152344 73.960938 423.980469 C 61.882812 458.835938 63.269531 487.503906 68.300781 548.46875 C 73.066406 606.222656 78.277344 658.675781 83.390625 705.019531 C 105.082031 704.074219 123 704.074219 144.691406 703.132812 C 150.976562 626.742188 151.605469 551.296875 157.894531 474.910156 C 165.121094 508.855469 181.785156 540.925781 189.015625 574.875 C 190.898438 617 198.445312 660.0625 200.332031 702.191406 C 222.964844 702.191406 239.941406 701.246094 262.574219 701.246094 C 269.09375 660.140625 273.773438 601.929688 264.460938 533.378906 C 254.191406 457.78125 230.796875 398.292969 211.648438 358.910156 C 181.46875 355.449219 151.292969 351.992188 121.113281 348.53125 " fill-opacity="1" fill-rule="nonzero"/><path fill="#363e44" d="M 221.214844 374.292969 C 210.769531 379.421875 193.570312 386.183594 171.449219 387.535156 C 138.480469 389.542969 113.355469 378.386719 102.050781 372.46875 C 107.835938 367.144531 125.96875 351.871094 153.644531 349.636719 C 191.492188 346.589844 217.132812 370.378906 221.214844 374.292969 " fill-opacity="1" fill-rule="nonzero"/><path fill="#efbc73" d="M 147.25 382.285156 C 147.25 392.117188 155.222656 400.089844 165.054688 400.089844 C 174.890625 400.089844 182.863281 392.117188 182.863281 382.285156 C 182.863281 372.449219 174.890625 364.476562 165.054688 364.476562 C 155.222656 364.476562 147.25 372.449219 147.25 382.285156 " fill-opacity="1" fill-rule="nonzero"/><path fill="#363e44" d="M 154.867188 382.285156 C 154.867188 387.910156 159.429688 392.472656 165.054688 392.472656 C 170.683594 392.472656 175.246094 387.910156 175.246094 382.285156 C 175.246094 376.65625 170.683594 372.09375 165.054688 372.09375 C 159.429688 372.09375 154.867188 376.65625 154.867188 382.285156 " fill-opacity="1" fill-rule="nonzero"/><path fill="#84524d" d="M 78.835938 762.378906 L 89.550781 729.148438 L 135.980469 729.148438 L 158.242188 733.691406 C 174.398438 736.957031 185.292969 750.453125 185.144531 762.378906 L 78.835938 762.378906 " fill-opacity="1" fill-rule="nonzero"/><path fill="#84524d" d="M 195.503906 762.378906 L 206.21875 729.148438 L 252.648438 729.148438 L 274.910156 733.691406 C 291.0625 736.957031 301.960938 750.453125 301.8125 762.378906 L 195.503906 762.378906 " fill-opacity="1" fill-rule="nonzero"/><path fill="#363e44" d="M 300.980469 756.171875 L 197.378906 756.171875 C 197.144531 756.171875 196.957031 755.984375 196.957031 755.753906 C 196.957031 755.523438 197.144531 755.335938 197.378906 755.335938 L 300.980469 755.335938 C 301.210938 755.335938 301.398438 755.523438 301.398438 755.753906 C 301.398438 755.984375 301.210938 756.171875 300.980469 756.171875 " fill-opacity="1" fill-rule="nonzero"/><path fill="#363e44" d="M 184.3125 756.171875 L 80.710938 756.171875 C 80.480469 756.171875 80.289062 755.984375 80.289062 755.753906 C 80.289062 755.523438 80.480469 755.335938 80.710938 755.335938 L 184.3125 755.335938 C 184.542969 755.335938 184.734375 755.523438 184.734375 755.753906 C 184.734375 755.984375 184.542969 756.171875 184.3125 756.171875 " fill-opacity="1" fill-rule="nonzero"/><path fill="#363e44" d="M 204.664062 145.894531 C 195.589844 139.046875 185.300781 144.683594 182.746094 147.777344 C 174.703125 157.535156 175.265625 167 166.652344 175.171875 C 159.976562 181.507812 148.675781 181.164062 141.65625 191.097656 C 132.921875 203.449219 141.511719 218.253906 131.957031 230.703125 C 127.019531 237.132812 113.875 242.757812 107.929688 243.65625 C 143.996094 252.898438 206.261719 270.878906 242.332031 280.128906 C 262.183594 275.347656 255.121094 263 255.683594 258.898438 C 256.871094 250.246094 242.945312 244.910156 243.355469 233.898438 C 243.746094 223.546875 253.53125 224.457031 253.972656 211.640625 C 254.65625 191.777344 244.394531 189.242188 240.105469 176.367188 C 237.195312 167.640625 239.59375 157.027344 232.914062 148.976562 C 229.304688 144.625 218.019531 137.164062 204.664062 145.894531 " fill-opacity="1" fill-rule="nonzero"/><path fill="#8b865c" d="M 120.433594 224.113281 C 93.230469 229.519531 13.769531 240.300781 18.664062 273.609375 C 22.714844 301.164062 99.636719 287.246094 126.996094 283.632812 C 124.808594 263.792969 122.621094 243.957031 120.433594 224.113281 " fill-opacity="1" fill-rule="nonzero"/><path fill="#8b865c" d="M 288.503906 262.144531 C 338.738281 292.390625 362.054688 315.179688 349.058594 333.257812 C 341.515625 343.746094 306.996094 338.25 266.09375 316.488281 C 273.101562 299.335938 279.570312 282.710938 288.503906 262.144531 " fill-opacity="1" fill-rule="nonzero"/><path fill="#8b865c" d="M 296.777344 267.453125 C 279.652344 257.183594 240.960938 231.160156 199.527344 223.625 C 157.375 215.960938 127.773438 222.320312 106.386719 226.707031 C 115.292969 272.933594 115.023438 280.757812 111.867188 297.589844 C 107.757812 319.5 95.21875 334.59375 81.734375 354.429688 C 75.519531 363.566406 68.722656 379.085938 76.9375 383.882812 C 87.601562 390.101562 110.632812 369.558594 168.023438 374.292969 C 198.972656 376.847656 216.410156 385.152344 229.660156 376.347656 C 248.582031 363.765625 243.84375 344.648438 266.644531 316.761719 C 278.035156 302.828125 284.070312 270.230469 296.777344 267.453125 " fill-opacity="1" fill-rule="nonzero"/><path fill="#bc8271" d="M 297.820312 311.210938 L 297.820312 311.203125 C 324.304688 265.222656 342.214844 232.085938 348.140625 222.078125 C 348.761719 221.027344 349.851562 219.171875 351.867188 217.234375 C 359.332031 210.050781 367.558594 213.242188 378.851562 209.273438 C 391.667969 204.765625 396.335938 194.972656 399.320312 196.734375 C 401.40625 197.960938 400.683594 202.148438 396.222656 209.464844 C 400.25 204.296875 406.019531 197.523438 408.867188 199.761719 C 412.019531 202.515625 406.175781 211.265625 402.378906 216.386719 C 406.976562 210.191406 411.265625 208.269531 412.550781 209.910156 C 414.5625 212.492188 412.121094 218.128906 405.734375 226.082031 L 405.734375 226.085938 C 411.675781 221.824219 413.753906 221.671875 414.53125 223.402344 C 415.949219 226.554688 410.570312 232.996094 404.949219 237.964844 C 398.621094 243.554688 391.773438 245.695312 387.421875 246.945312 L 387.417969 246.945312 C 372.207031 281.074219 362.46875 303.042969 350.746094 330.855469 C 348.347656 336.550781 341.585938 338.964844 336.121094 336.085938 C 321.351562 328.304688 313.171875 323.660156 297.820312 311.210938 " fill-opacity="1" fill-rule="nonzero"/><path fill="#363e44" d="M 298.117188 311.101562 C 298.046875 311.101562 297.976562 311.085938 297.910156 311.050781 C 297.707031 310.929688 297.640625 310.675781 297.757812 310.472656 C 303.601562 300.320312 309.375 290.199219 315.40625 279.523438 C 315.519531 279.320312 315.777344 279.25 315.980469 279.363281 C 316.179688 279.476562 316.253906 279.734375 316.140625 279.933594 C 310.105469 290.613281 304.328125 300.742188 298.484375 310.894531 C 298.402344 311.027344 298.265625 311.101562 298.117188 311.101562 " fill-opacity="1" fill-rule="nonzero"/><path fill="#bc8271" d="M 369.339844 215.328125 C 375.292969 203.273438 374.886719 197.664062 372.949219 196.785156 C 369.679688 195.300781 360.386719 203.511719 349.472656 220.03125 C 355.121094 219.214844 363.6875 216.144531 369.339844 215.328125 " fill-opacity="1" fill-rule="nonzero"/><path fill="#363e44" d="M 367.828125 238.089844 C 367.765625 238.089844 367.703125 238.070312 367.640625 238.042969 C 367.4375 237.941406 367.347656 237.691406 367.453125 237.480469 C 368.53125 235.289062 370.601562 232.214844 374.347656 230.011719 C 379.644531 226.90625 385 227.570312 387.050781 228.003906 C 387.277344 228.054688 387.425781 228.277344 387.375 228.503906 C 387.328125 228.730469 387.105469 228.871094 386.878906 228.828125 C 384.917969 228.414062 379.816406 227.777344 374.773438 230.738281 C 371.203125 232.828125 369.230469 235.765625 368.203125 237.855469 C 368.132812 238 367.980469 238.089844 367.828125 238.089844 " fill-opacity="1" fill-rule="nonzero"/><path fill="#363e44" d="M 357.855469 214.328125 C 357.683594 214.328125 357.527344 214.226562 357.460938 214.054688 C 357.378906 213.835938 357.496094 213.597656 357.710938 213.515625 C 360.515625 212.484375 363.496094 212.144531 366.65625 211.785156 C 368.128906 211.621094 369.648438 211.445312 371.234375 211.195312 C 371.460938 211.15625 371.679688 211.316406 371.714844 211.542969 C 371.753906 211.773438 371.59375 211.988281 371.363281 212.023438 C 369.765625 212.277344 368.230469 212.449219 366.75 212.621094 C 363.644531 212.972656 360.710938 213.304688 358 214.304688 C 357.953125 214.320312 357.902344 214.328125 357.855469 214.328125 " fill-opacity="1" fill-rule="nonzero"/><path fill="#363e44" d="M 386.019531 216.636719 C 385.855469 216.636719 385.699219 216.535156 385.632812 216.371094 C 385.550781 216.15625 385.652344 215.910156 385.867188 215.828125 C 387.367188 215.234375 388.8125 214.496094 390.167969 213.640625 C 392.136719 212.398438 393.9375 210.890625 395.519531 209.160156 C 395.679688 208.988281 395.945312 208.976562 396.117188 209.128906 C 396.285156 209.289062 396.296875 209.554688 396.144531 209.726562 C 394.507812 211.507812 392.648438 213.066406 390.621094 214.347656 C 389.214844 215.234375 387.722656 215.992188 386.175781 216.605469 C 386.128906 216.628906 386.074219 216.636719 386.019531 216.636719 " fill-opacity="1" fill-rule="nonzero"/><path fill="#363e44" d="M 392.746094 222.742188 C 392.585938 222.742188 392.421875 222.636719 392.359375 222.472656 C 392.273438 222.257812 392.378906 222.011719 392.59375 221.929688 C 394.089844 221.332031 395.539062 220.597656 396.894531 219.742188 C 398.863281 218.5 400.667969 216.988281 402.246094 215.261719 C 402.40625 215.089844 402.667969 215.078125 402.84375 215.234375 C 403.007812 215.390625 403.019531 215.65625 402.867188 215.828125 C 401.234375 217.613281 399.375 219.164062 397.339844 220.449219 C 395.941406 221.335938 394.449219 222.09375 392.902344 222.710938 C 392.851562 222.726562 392.800781 222.742188 392.746094 222.742188 " fill-opacity="1" fill-rule="nonzero"/><path fill="#363e44" d="M 395.746094 233.371094 C 395.578125 233.371094 395.417969 233.269531 395.355469 233.101562 C 395.269531 232.886719 395.375 232.644531 395.59375 232.5625 C 397.085938 231.964844 398.53125 231.230469 399.894531 230.371094 C 401.859375 229.128906 403.664062 227.621094 405.246094 225.894531 C 405.398438 225.722656 405.664062 225.707031 405.835938 225.863281 C 406.007812 226.023438 406.019531 226.285156 405.859375 226.460938 C 404.234375 228.242188 402.375 229.800781 400.335938 231.082031 C 398.9375 231.964844 397.445312 232.726562 395.902344 233.34375 C 395.847656 233.359375 395.796875 233.371094 395.746094 233.371094 " fill-opacity="1" fill-rule="nonzero"/><path fill="#8b865c" d="M 332.15625 240.519531 C 337.59375 240.078125 339.335938 249.671875 349.054688 256.957031 C 365.488281 269.28125 377.816406 264.03125 383.980469 268.367188 C 386.949219 270.457031 388.328125 284.792969 380.097656 295.304688 C 376.222656 300.257812 371.796875 303.207031 368.6875 304.898438 C 365.488281 313.570312 362.660156 321.203125 356.8125 328.179688 C 344.703125 342.628906 326.183594 338.273438 321.199219 337.3125 C 298.867188 333.011719 287.597656 311.6875 284.675781 307.179688 C 293.265625 301.023438 304.792969 291.003906 313.441406 275.671875 C 323.597656 257.671875 324.839844 241.109375 332.15625 240.519531 " fill-opacity="1" fill-rule="nonzero"/><path fill="#363e44" d="M 289.59375 303.867188 C 289.46875 303.867188 289.347656 303.8125 289.265625 303.714844 C 289.121094 303.53125 289.148438 303.265625 289.332031 303.121094 C 298.816406 295.503906 306.5625 286.621094 312.355469 276.714844 C 312.476562 276.519531 312.730469 276.449219 312.933594 276.570312 C 313.128906 276.683594 313.195312 276.941406 313.082031 277.140625 C 307.234375 287.132812 299.417969 296.09375 289.855469 303.777344 C 289.777344 303.835938 289.6875 303.867188 289.59375 303.867188 " fill-opacity="1" fill-rule="nonzero"/><path fill="#363e44" d="M 368.230469 304.859375 C 368.179688 304.859375 368.132812 304.847656 368.085938 304.832031 C 359.429688 301.660156 351.175781 297.421875 343.5625 292.230469 C 336.171875 287.183594 329.386719 281.253906 323.398438 274.585938 C 323.246094 274.410156 323.261719 274.144531 323.433594 273.992188 C 323.605469 273.839844 323.867188 273.851562 324.023438 274.023438 C 329.96875 280.640625 336.699219 286.53125 344.039062 291.539062 C 351.59375 296.6875 359.78125 300.898438 368.371094 304.042969 C 368.589844 304.125 368.703125 304.367188 368.621094 304.585938 C 368.5625 304.753906 368.398438 304.859375 368.230469 304.859375 " fill-opacity="1" fill-rule="nonzero"/><path fill="#bc8271" d="M 210.195312 151.300781 C 211.460938 151.367188 223.5625 152.175781 229.539062 161.425781 C 233.988281 168.308594 233.464844 176.214844 230.582031 189.335938 C 227.1875 204.789062 223 213.554688 218.042969 215.960938 C 210.214844 219.765625 190.566406 205.699219 184.601562 190.871094 C 180.296875 180.164062 182.851562 167.589844 190.410156 158.773438 C 197.949219 149.976562 209.390625 151.257812 210.195312 151.300781 " fill-opacity="1" fill-rule="nonzero"/><path fill="#bc8271" d="M 191.410156 238.941406 C 197.746094 239.886719 203.652344 235.519531 204.597656 229.183594 L 210.964844 186.589844 C 211.914062 180.253906 207.542969 174.347656 201.210938 173.402344 C 194.875 172.453125 188.96875 176.820312 188.023438 183.15625 L 181.652344 225.753906 C 180.707031 232.089844 185.074219 237.992188 191.410156 238.941406 " fill-opacity="1" fill-rule="nonzero"/><path fill="#363e44" d="M 206.777344 215.183594 C 206.714844 215.183594 206.652344 215.167969 206.59375 215.140625 C 202.398438 213.054688 197.9375 209.746094 194.027344 205.824219 C 193.863281 205.660156 193.863281 205.398438 194.03125 205.234375 C 194.195312 205.070312 194.460938 205.070312 194.621094 205.234375 C 198.46875 209.089844 202.851562 212.34375 206.964844 214.386719 C 207.171875 214.492188 207.257812 214.742188 207.152344 214.949219 C 207.082031 215.097656 206.933594 215.183594 206.777344 215.183594 " fill-opacity="1" fill-rule="nonzero"/><path fill="#ffffff" d="M 229.539062 182.5625 C 234.234375 181.652344 238.515625 182.9375 238.515625 182.9375 C 238.515625 182.9375 236.5625 187.085938 232.644531 189.980469 C 231.816406 190.59375 228.46875 182.769531 229.539062 182.5625 " fill-opacity="1" fill-rule="nonzero"/><path fill="#363e44" d="M 229.894531 191.597656 C 224.144531 194.164062 217.691406 192.226562 217.691406 192.226562 C 217.691406 192.226562 220.5625 186.132812 226.3125 183.566406 C 227.378906 183.089844 228.46875 182.773438 229.539062 182.5625 C 231.726562 184.273438 232.980469 187.042969 232.644531 189.976562 C 231.816406 190.589844 230.898438 191.148438 229.894531 191.597656 " fill-opacity="1" fill-rule="nonzero"/><path fill="#363e44" d="M 148.492188 253.71875 C 149.898438 250.78125 151.246094 247.195312 152.101562 242.972656 C 154 233.570312 152.511719 225.820312 151.417969 221.742188 C 151.671875 225.269531 152.09375 237.183594 143.882812 247.335938 C 142.769531 248.714844 141.613281 249.90625 140.460938 250.960938 C 131.21875 247.78125 122.652344 244.828125 116.203125 242.570312 C 136.75 233.210938 136.292969 223.511719 137.207031 212.214844 C 138.300781 198.667969 159.5 201.171875 169.394531 189.382812 C 181.59375 174.847656 174.382812 164.34375 186.515625 154.796875 C 194.820312 148.265625 207.160156 146.136719 216.988281 148.636719 C 219.039062 149.152344 221.632812 149.835938 224.410156 151.71875 C 235.46875 159.195312 234.816406 175.695312 234.683594 178.199219 C 234.578125 176.515625 233.980469 170.0625 228.746094 165.414062 C 226.632812 163.53125 224.421875 162.53125 222.8125 161.988281 C 217.824219 162.816406 210.78125 164.777344 208.089844 170.207031 C 203.589844 179.273438 216.222656 187.921875 214.253906 201.367188 C 212.378906 214.136719 199.679688 215.214844 192.335938 229.785156 C 188.734375 236.933594 185.636719 248.886719 191.308594 268.484375 C 180.648438 264.757812 164.207031 259.121094 148.492188 253.71875 " fill-opacity="1" fill-rule="nonzero"/><path fill="#363e44" d="M 218.273438 198.246094 C 218.132812 198.246094 217.992188 198.175781 217.914062 198.042969 C 217.792969 197.847656 217.855469 197.589844 218.054688 197.472656 C 219.023438 196.886719 219.539062 196.277344 219.585938 195.671875 C 219.628906 195.121094 219.277344 194.664062 218.9375 194.222656 C 218.867188 194.132812 218.796875 194.039062 218.730469 193.949219 C 217.96875 192.890625 217.621094 191.484375 217.695312 189.761719 C 217.707031 189.53125 217.90625 189.355469 218.132812 189.359375 C 218.367188 189.375 218.546875 189.570312 218.535156 189.796875 C 218.46875 191.328125 218.761719 192.5625 219.414062 193.460938 C 219.46875 193.539062 219.535156 193.621094 219.601562 193.710938 C 219.976562 194.195312 220.488281 194.859375 220.421875 195.734375 C 220.355469 196.628906 219.703125 197.453125 218.488281 198.1875 C 218.421875 198.230469 218.347656 198.246094 218.273438 198.246094 " fill-opacity="1" fill-rule="nonzero"/><path fill="#363e44" d="M 217.574219 204.414062 C 216.59375 204.414062 215.816406 204.054688 215.539062 203.90625 C 215.335938 203.796875 215.257812 203.542969 215.367188 203.335938 C 215.476562 203.132812 215.730469 203.054688 215.933594 203.164062 C 216.253906 203.335938 217.398438 203.855469 218.667969 203.371094 C 219.4375 203.078125 219.917969 202.550781 220.183594 202.160156 C 220.3125 201.96875 220.574219 201.917969 220.765625 202.046875 C 220.957031 202.175781 221.007812 202.4375 220.878906 202.632812 C 220.542969 203.121094 219.941406 203.785156 218.96875 204.15625 C 218.480469 204.34375 218.007812 204.414062 217.574219 204.414062 " fill-opacity="1" fill-rule="nonzero"/><path fill="#ffffff" d="M 198.277344 287.285156 L 147.140625 372.429688 L 152.132812 375.429688 L 150.609375 415.109375 L 116.292969 435.097656 L 108.132812 430.195312 L 128.820312 395.75 L 112.355469 385.863281 L 91.667969 420.308594 L 83.503906 415.40625 L 85.03125 375.722656 L 119.34375 355.734375 L 124.339844 358.734375 L 175.476562 273.589844 L 170.480469 270.589844 L 172.003906 230.90625 L 206.320312 210.917969 L 214.484375 215.820312 L 193.792969 250.265625 L 210.257812 260.15625 L 230.949219 225.710938 L 239.113281 230.613281 L 237.585938 270.296875 L 203.273438 290.285156 L 198.277344 287.285156 " fill-opacity="1" fill-rule="nonzero"/><path fill="#bc8271" d="M 62.980469 248.199219 C 84.765625 256.511719 137.042969 273.550781 142.078125 275.417969 C 151.492188 278.910156 201.539062 298.945312 199.429688 306.480469 C 198.421875 310.078125 188.605469 306.652344 185.324219 305.402344 C 187.476562 307.726562 196.710938 315.742188 194.574219 319.347656 C 192.0625 323.582031 179.59375 315.710938 179.324219 315.710938 C 181.75 317.847656 191.757812 325.960938 190.257812 328.726562 C 188.3125 332.320312 176.738281 327.566406 173.335938 325.984375 C 173.480469 326.613281 183.242188 335.167969 181.957031 337.316406 C 180.535156 339.703125 169.636719 335.527344 165.167969 334.273438 C 156.796875 331.179688 123.632812 320.902344 107.285156 316.675781 C 68.890625 306.75 52.226562 300.628906 34.507812 292.5625 C 27.570312 289.40625 21.386719 283.503906 19.324219 277.304688 C 16.707031 269.453125 19.6875 262.503906 27.542969 259.90625 C 39.355469 256.003906 51.070312 252.164062 62.980469 248.199219 " fill-opacity="1" fill-rule="nonzero"/><path fill="#8b865c" d="M 131.269531 267 C 131.472656 272.382812 122.605469 274.765625 115.289062 285.265625 C 106.1875 298.324219 106.175781 314.347656 107.984375 326.8125 C 106.113281 327.695312 97.429688 331.542969 86.984375 328.179688 C 76.308594 324.742188 71.5 316.253906 70.546875 314.480469 C 63.328125 313.179688 53.03125 310.414062 42.238281 303.980469 C 39.878906 302.574219 15.222656 284.039062 18.039062 267.796875 C 20.308594 254.726562 38.0625 243.347656 71.003906 245.082031 C 119.464844 253.152344 131.042969 260.957031 131.269531 267 " fill-opacity="1" fill-rule="nonzero"/><path fill="#363e44" d="M 129.886719 271.066406 C 129.796875 271.066406 129.703125 271.035156 129.625 270.972656 C 129.445312 270.832031 129.414062 270.566406 129.5625 270.386719 C 130.484375 269.234375 130.894531 268.164062 130.851562 267.015625 C 130.578125 259.746094 114.699219 250.28125 70.957031 245.5 C 64.132812 244.757812 57.417969 244.699219 50.996094 245.332031 C 50.757812 245.355469 50.558594 245.1875 50.535156 244.960938 C 50.511719 244.726562 50.683594 244.519531 50.914062 244.496094 C 57.394531 243.859375 64.167969 243.917969 71.050781 244.667969 C 126.765625 250.753906 131.550781 263.285156 131.691406 266.984375 C 131.742188 268.34375 131.273438 269.589844 130.214844 270.910156 C 130.132812 271.011719 130.011719 271.066406 129.886719 271.066406 " fill-opacity="1" fill-rule="nonzero"/><path fill="#363e44" d="M 185.570312 305.515625 C 185.472656 305.515625 185.375 305.484375 185.296875 305.417969 C 183.707031 304.070312 182.015625 302.816406 180.261719 301.703125 C 177.113281 299.699219 173.703125 298.085938 170.128906 296.902344 C 169.910156 296.828125 169.789062 296.589844 169.859375 296.367188 C 169.933594 296.152344 170.171875 296.03125 170.390625 296.101562 C 174.03125 297.308594 177.503906 298.957031 180.710938 300.996094 C 182.5 302.132812 184.222656 303.402344 185.839844 304.777344 C 186.015625 304.925781 186.039062 305.191406 185.886719 305.367188 C 185.804688 305.46875 185.6875 305.515625 185.570312 305.515625 " fill-opacity="1" fill-rule="nonzero"/><path fill="#363e44" d="M 179.601562 315.960938 C 179.519531 315.960938 179.4375 315.9375 179.367188 315.886719 C 179.003906 315.640625 178.632812 315.398438 178.25 315.152344 C 175.101562 313.152344 171.691406 311.535156 168.117188 310.351562 C 167.898438 310.28125 167.777344 310.042969 167.851562 309.824219 C 167.921875 309.601562 168.160156 309.484375 168.378906 309.554688 C 172.019531 310.761719 175.492188 312.410156 178.699219 314.449219 C 179.089844 314.695312 179.46875 314.941406 179.835938 315.191406 C 180.027344 315.320312 180.078125 315.585938 179.949219 315.773438 C 179.867188 315.894531 179.734375 315.960938 179.601562 315.960938 " fill-opacity="1" fill-rule="nonzero"/><path fill="#363e44" d="M 173.148438 326.214844 C 173.082031 326.214844 173.019531 326.203125 172.957031 326.167969 C 170.792969 325.042969 168.511719 324.074219 166.179688 323.304688 C 165.960938 323.230469 165.839844 322.992188 165.914062 322.773438 C 165.988281 322.550781 166.222656 322.433594 166.445312 322.503906 C 168.820312 323.296875 171.140625 324.277344 173.34375 325.425781 C 173.550781 325.53125 173.628906 325.785156 173.519531 325.988281 C 173.445312 326.136719 173.300781 326.214844 173.148438 326.214844 " fill-opacity="1" fill-rule="nonzero"/><path fill="#363e44" d="M 70.433594 309.996094 L 70.410156 309.996094 C 70.179688 309.980469 70 309.785156 70.011719 309.554688 C 70.578125 298.246094 73.242188 287.375 77.929688 277.246094 C 82.894531 266.507812 90.15625 256.855469 98.921875 249.332031 C 99.097656 249.179688 99.363281 249.203125 99.515625 249.378906 C 99.664062 249.554688 99.644531 249.816406 99.46875 249.96875 C 90.792969 257.414062 83.605469 266.96875 78.691406 277.597656 C 74.046875 287.625 71.410156 298.394531 70.851562 309.597656 C 70.839844 309.816406 70.65625 309.996094 70.433594 309.996094 " fill-opacity="1" fill-rule="nonzero"/><path fill="#e6d0be" d="M 182.632812 85.738281 C 182.085938 102.769531 168.214844 116.640625 151.183594 117.1875 C 132.378906 117.785156 117.007812 102.417969 117.609375 83.609375 C 118.152344 66.578125 132.023438 52.707031 149.054688 52.160156 C 167.859375 51.5625 183.230469 66.929688 182.632812 85.738281 Z M 205.726562 75.40625 L 200.25 75.40625 C 199.757812 72.734375 199.058594 70.140625 198.171875 67.632812 L 202.910156 64.894531 L 193.644531 48.84375 L 188.890625 51.582031 C 187.148438 49.542969 185.246094 47.644531 183.207031 45.902344 L 185.949219 41.148438 L 169.898438 31.882812 L 167.160156 36.621094 C 164.652344 35.734375 162.058594 35.035156 159.386719 34.542969 L 159.386719 29.066406 L 140.851562 29.066406 L 140.851562 34.542969 C 138.183594 35.035156 135.585938 35.734375 133.078125 36.621094 L 130.34375 31.882812 L 114.289062 41.148438 L 117.03125 45.902344 C 114.992188 47.644531 113.089844 49.542969 111.347656 51.582031 L 106.597656 48.84375 L 97.328125 64.894531 L 102.070312 67.632812 C 101.179688 70.140625 100.480469 72.734375 99.988281 75.40625 L 94.511719 75.40625 L 94.511719 93.941406 L 99.988281 93.941406 C 100.480469 96.613281 101.179688 99.207031 102.070312 101.714844 L 97.328125 104.453125 L 106.597656 120.503906 L 111.347656 117.757812 C 113.089844 119.796875 114.992188 121.703125 117.03125 123.445312 L 114.289062 128.195312 L 130.34375 137.464844 L 133.078125 132.726562 C 135.585938 133.613281 138.183594 134.3125 140.851562 134.804688 L 140.851562 140.28125 L 159.386719 140.28125 L 159.386719 134.804688 C 162.058594 134.3125 164.652344 133.613281 167.160156 132.726562 L 169.898438 137.464844 L 185.949219 128.195312 L 183.207031 123.445312 C 185.246094 121.703125 187.148438 119.796875 188.890625 117.757812 L 193.644531 120.503906 L 202.910156 104.453125 L 198.171875 101.714844 C 199.058594 99.207031 199.757812 96.613281 200.25 93.941406 L 205.726562 93.941406 L 205.726562 75.40625 " fill-opacity="1" fill-rule="nonzero"/><path fill="#f2e6dc" d="M 150.121094 125.636719 C 127.53125 125.636719 109.152344 107.261719 109.152344 84.671875 C 109.152344 74.804688 112.710938 65.269531 119.175781 57.828125 C 125.574219 50.457031 134.386719 45.601562 143.984375 44.164062 C 144.214844 44.128906 144.429688 44.289062 144.460938 44.515625 C 144.496094 44.746094 144.339844 44.957031 144.109375 44.992188 C 124.660156 47.917969 109.992188 64.972656 109.992188 84.671875 C 109.992188 106.800781 127.992188 124.800781 150.121094 124.800781 C 168.402344 124.800781 184.375 112.460938 188.960938 94.785156 C 189.019531 94.5625 189.25 94.429688 189.472656 94.484375 C 189.695312 94.542969 189.832031 94.773438 189.773438 94.996094 C 185.089844 113.039062 168.785156 125.636719 150.121094 125.636719 " fill-opacity="1" fill-rule="nonzero"/></svg>